<svg width="44" height="44" viewBox="0 0 44 44" fill="none" xmlns="http://www.w3.org/2000/svg">
<circle cx="21.5547" cy="21.5547" r="21.5547" fill="#F7F7F7"/>
<path d="M34.9026 15.7701L34.9028 15.7738C34.9999 17.612 34.998 19.4384 34.9961 21.2921C34.9959 21.5497 34.9956 21.8078 34.9956 22.0665C34.9956 22.3563 34.996 22.6453 34.9964 22.9336C34.9989 24.756 35.0014 26.5514 34.9029 28.3585L34.9027 28.363C34.7938 30.758 34.2885 32.7901 32.7189 34.4622C31.1584 36.1247 29.2634 36.6601 27.0328 36.7752L27.0287 36.7755C25.3061 36.8787 23.5945 36.8767 21.8543 36.8747C21.6125 36.8744 21.3702 36.8741 21.1272 36.8741C20.8847 36.8741 20.6428 36.8744 20.4014 36.8747C18.6636 36.8767 16.9515 36.8787 15.2256 36.7754L15.2215 36.7752C12.9908 36.6601 11.0994 36.1284 9.53542 34.4622C7.96939 32.7938 7.46058 30.7578 7.35171 28.363L7.35151 28.3593C7.25443 26.521 7.25631 24.6915 7.25822 22.8396C7.25848 22.5824 7.25874 22.3247 7.25874 22.0665C7.25874 21.8083 7.25848 21.5507 7.25822 21.2935C7.25631 19.4424 7.25443 17.6154 7.35152 15.7737L7.35153 15.7737L7.35169 15.7701C7.46058 13.3751 7.96589 11.343 9.53542 9.67092C11.0959 8.00839 12.991 7.47296 15.2215 7.35786L15.2215 7.35788L15.2257 7.35763C16.9483 7.25438 18.6599 7.25637 20.4 7.25839C20.6418 7.25867 20.8842 7.25895 21.1272 7.25895C21.3697 7.25895 21.6116 7.25867 21.853 7.25839C23.5908 7.25637 25.3029 7.25438 27.0287 7.35763L27.0287 7.35765L27.0328 7.35786C29.2636 7.47298 31.1549 8.00467 32.7189 9.67092C34.285 11.3393 34.7938 13.3753 34.9026 15.7701ZM16.8317 22.0665C16.8317 19.5013 18.7905 17.4615 21.1236 17.4615C23.4567 17.4615 25.4155 19.5013 25.4155 22.0665C25.4155 24.6318 23.4567 26.6716 21.1236 26.6716C18.7905 26.6716 16.8317 24.6318 16.8317 22.0665ZM13.2506 22.0665C13.2506 26.6592 16.738 30.4214 21.1236 30.4214C25.5092 30.4214 28.9965 26.6592 28.9965 22.0665C28.9965 17.4739 25.5092 13.7117 21.1236 13.7117C16.738 13.7117 13.2506 17.4739 13.2506 22.0665ZM26.5766 13.89C26.5766 15.1505 27.54 16.2241 28.7978 16.2244L30.5204 13.89H31.0204C31.0204 13.8898 31.0204 13.8896 31.0204 13.8894C31.0201 12.6289 30.0564 11.5555 28.7985 11.5555C27.5404 11.5555 26.5766 12.6292 26.5766 13.89Z" fill="#978E85" stroke="#978E85"/>
</svg>
