<svg width="45" height="44" viewBox="0 0 45 44" fill="none" xmlns="http://www.w3.org/2000/svg">
<circle cx="22.5" cy="21.5547" r="21.5547" fill="#F7F7F7"/>
<path d="M7.70879 37.3753L9.65158 29.7699C8.37143 27.432 7.69886 24.7731 7.70304 22.0665C7.70304 13.6115 14.1364 6.75781 22.0728 6.75781C30.0092 6.75781 36.4426 13.6115 36.4426 22.0665C36.4426 30.5215 30.0092 37.3753 22.0728 37.3753C19.5333 37.3796 17.0386 36.6637 14.8448 35.3009L7.70879 37.3753ZM16.8868 14.8837C16.7012 14.896 16.5199 14.948 16.3536 15.0368C16.1978 15.1308 16.0555 15.2484 15.9312 15.3858C15.7587 15.5588 15.661 15.7088 15.5561 15.8543C15.025 16.5906 14.7393 17.4945 14.7442 18.4231C14.7471 19.1732 14.931 19.9034 15.2184 20.5862C15.8061 21.967 16.7732 23.429 18.0507 24.7838C18.3582 25.1099 18.6585 25.4375 18.9819 25.7422C20.5674 27.2293 22.4568 28.3018 24.4998 28.8743L25.3175 29.0075C25.5833 29.0228 25.8492 29.0014 26.1164 28.9876C26.535 28.9646 26.9436 28.8439 27.3134 28.634C27.5016 28.5307 27.6853 28.4183 27.8638 28.2972C27.8638 28.2972 27.9256 28.2543 28.0434 28.1594C28.2374 28.0063 28.3567 27.8976 28.5176 27.7185C28.6369 27.5869 28.7404 27.4322 28.8194 27.2562C28.9315 27.0067 29.0436 26.5306 29.0896 26.1341C29.124 25.831 29.114 25.6656 29.1097 25.5631C29.1039 25.3992 28.976 25.2293 28.8366 25.1574L28.0003 24.7578C28.0003 24.7578 26.7502 24.1776 25.9871 23.8071C25.9067 23.7698 25.8205 23.7485 25.7328 23.7444C25.6345 23.7336 25.5351 23.7454 25.4414 23.7789C25.3477 23.8125 25.2619 23.867 25.1896 23.9388V23.9357C25.1824 23.9357 25.0861 24.023 24.0472 25.364C23.9876 25.4494 23.9054 25.5139 23.8113 25.5494C23.7171 25.5848 23.6151 25.5896 23.5184 25.5631C23.4248 25.5364 23.333 25.5026 23.2439 25.462C23.0657 25.3824 23.004 25.3518 22.8818 25.2951L22.8746 25.2921C22.0525 24.9097 21.2914 24.3932 20.6186 23.7612C20.4375 23.5928 20.2694 23.4091 20.097 23.2315C19.5316 22.6548 19.0389 22.0023 18.6312 21.2904L18.5465 21.145C18.4856 21.0472 18.4363 20.9418 18.3999 20.8311C18.3453 20.6061 18.4875 20.4254 18.4875 20.4254C18.4875 20.4254 18.8367 20.0182 18.9991 19.7978C19.1343 19.6146 19.2605 19.424 19.377 19.2268C19.5466 18.9359 19.5998 18.6374 19.5107 18.4062C19.1083 17.3591 18.6916 16.3166 18.2634 15.2817C18.1786 15.0766 17.9271 14.9296 17.6986 14.9005C17.621 14.8913 17.5434 14.8822 17.4659 14.876C17.2729 14.8658 17.0795 14.8679 16.8868 14.8822V14.8837Z" fill="#978E85"/>
</svg>
