<svg width="34" height="54" viewBox="0 0 34 54" fill="none" xmlns="http://www.w3.org/2000/svg">
<path d="M17 0C7.6092 0 0 7.52758 0 16.8518C0 32.9741 17 54 17 54C17 54 34 32.9707 34 16.8518C34 7.53096 26.3908 0 17 0ZM17 26.176C14.5653 26.176 12.2303 25.2153 10.5088 23.5053C8.78718 21.7953 7.82 19.4761 7.82 17.0578C7.82 14.6395 8.78718 12.3202 10.5088 10.6102C12.2303 8.90025 14.5653 7.93959 17 7.93959C19.4347 7.93959 21.7697 8.90025 23.4912 10.6102C25.2128 12.3202 26.18 14.6395 26.18 17.0578C26.18 19.4761 25.2128 21.7953 23.4912 23.5053C21.7697 25.2153 19.4347 26.176 17 26.176Z" fill="white"/>
</svg>
