<svg width="34" height="34" viewBox="0 0 34 34" fill="none" xmlns="http://www.w3.org/2000/svg">
<path d="M22.6681 24.1538L25.5958 21.2261C25.9902 20.8367 26.4891 20.5701 27.032 20.4587C27.5749 20.3474 28.1385 20.396 28.6543 20.5987L32.2224 22.0234C32.7437 22.235 33.1907 22.5961 33.507 23.0613C33.8233 23.5265 33.9949 24.0749 34 24.6374V31.1725C33.997 31.5552 33.9165 31.9333 33.7635 32.2841C33.6105 32.6348 33.3881 32.951 33.1097 33.2135C32.8313 33.4761 32.5026 33.6796 32.1435 33.8117C31.7843 33.9439 31.4022 34.0021 31.02 33.9826C6.01664 32.4273 0.971533 11.2535 0.0174062 3.14998C-0.026885 2.75204 0.0135827 2.34923 0.136147 1.96805C0.258711 1.58687 0.460594 1.23596 0.728514 0.938412C0.996435 0.64086 1.32432 0.403407 1.6906 0.241675C2.05688 0.0799423 2.45326 -0.00240382 2.85365 5.34167e-05H9.16657C9.72991 0.0017209 10.2799 0.171884 10.7457 0.488657C11.2115 0.80543 11.572 1.25432 11.7806 1.7776L13.2053 5.34578C13.4147 5.85953 13.4682 6.4236 13.3589 6.96755C13.2497 7.51149 12.9826 8.01118 12.591 8.40421L9.66323 11.3319C9.66323 11.3319 11.3493 22.7422 22.6681 24.1538Z" fill="white"/>
</svg>
