<svg width="26" height="26" viewBox="0 0 26 26" fill="none" xmlns="http://www.w3.org/2000/svg">
<g clip-path="url(#clip0_404_3222)">
<path d="M13 5.44002C8.7808 5.44002 5.35089 8.79427 5.34509 12.9204C5.34509 14.3336 5.75134 15.7128 6.51741 16.899L6.69732 17.1827L5.92545 19.9411L8.82143 19.1976L9.1 19.3622C10.2723 20.0432 11.6187 20.4065 12.9942 20.4065H13C17.2134 20.4065 20.7362 17.0522 20.7362 12.9261C20.7362 10.9283 19.854 9.04967 18.4089 7.63646C16.958 6.21757 15.0429 5.44002 13 5.44002ZM17.4978 16.1328C17.3062 16.6606 16.3893 17.1373 15.9482 17.1998C15.217 17.3076 14.6482 17.2508 13.1915 16.6379C10.8875 15.6617 9.37857 13.3915 9.2625 13.2439C9.14643 13.0963 8.32232 12.0237 8.32232 10.9169C8.32232 9.8102 8.91429 9.26534 9.12902 9.03832C9.33795 8.8113 9.5875 8.75454 9.7442 8.75454C9.89509 8.75454 10.0518 8.75454 10.1853 8.76022C10.3246 8.7659 10.5161 8.70914 10.7018 9.14616C10.8933 9.59453 11.3518 10.7013 11.4098 10.8148C11.4679 10.9283 11.5085 11.0588 11.4272 11.2064C10.9862 12.0691 10.5161 12.035 10.754 12.4323C11.642 13.925 12.5299 14.4414 13.8821 15.1055C14.1143 15.219 14.2478 15.202 14.3812 15.0487C14.5147 14.9012 14.9558 14.3904 15.1067 14.169C15.2576 13.942 15.4143 13.9817 15.6232 14.0555C15.8321 14.1293 16.9638 14.6741 17.196 14.7877C17.4281 14.9012 17.579 14.9579 17.6371 15.0487C17.6893 15.1566 17.6893 15.6106 17.4978 16.1328ZM23.2143 0.286621H2.78571C1.24777 0.286621 0 1.50686 0 3.01089V22.9888C0 24.4928 1.24777 25.7131 2.78571 25.7131H23.2143C24.7522 25.7131 26 24.4928 26 22.9888V3.01089C26 1.50686 24.7522 0.286621 23.2143 0.286621ZM12.9942 21.9218C11.4504 21.9218 9.93571 21.5416 8.59509 20.8264L3.71429 22.0807L5.02009 17.4154C4.21339 16.0533 3.78973 14.5039 3.78973 12.9147C3.79554 7.95429 7.92187 3.91897 12.9942 3.91897C15.4549 3.91897 17.7647 4.85544 19.5058 6.55811C21.2411 8.26077 22.2857 10.5196 22.2857 12.9261C22.2857 17.8865 18.0665 21.9218 12.9942 21.9218Z" fill="#FFFEFE"/>
</g>
<defs>
<clipPath id="clip0_404_3222">
<rect width="26" height="26" fill="white"/>
</clipPath>
</defs>
</svg>
