<svg width="110" height="58" viewBox="0 0 110 58" fill="none" xmlns="http://www.w3.org/2000/svg">
<path d="M12.5991 7.87696L12.5997 8.87696L12.5991 7.87696ZM0.927466 8.5913C0.536699 8.20102 0.536304 7.56785 0.926589 7.17708L7.2866 0.809182C7.67689 0.418417 8.31005 0.418024 8.70082 0.808308C9.09159 1.19859 9.09198 1.83176 8.7017 2.22252L3.04835 7.88288L8.7087 13.5362C9.09946 13.9265 9.09986 14.5597 8.70957 14.9504C8.3193 15.3412 7.68613 15.3416 7.29536 14.9513L0.927466 8.5913ZM12.5997 8.87696L1.63475 8.88375L1.63351 6.88375L12.5985 6.87696L12.5997 8.87696ZM108.275 57.9334C86.1537 27.117 50.534 8.85347 12.5997 8.87696L12.5985 6.87696C51.1775 6.85307 87.4025 25.427 109.9 56.7671L108.275 57.9334Z" fill="white"/>
</svg>
