<svg width="81" height="64" viewBox="0 0 81 64" fill="none" xmlns="http://www.w3.org/2000/svg">
<path d="M5.2887 8.79938L4.80948 8.94202L5.2887 8.79938ZM3.20519 0.560246C2.96234 0.428806 2.65891 0.519122 2.52747 0.761973L0.385479 4.71948C0.254039 4.96234 0.344358 5.26577 0.587206 5.39721C0.830057 5.52865 1.13349 5.43833 1.26493 5.19548L3.16892 1.6777L6.6867 3.58168C6.92956 3.71312 7.23298 3.62281 7.36443 3.37996C7.49587 3.1371 7.40556 2.83368 7.1627 2.70223L3.20519 0.560246ZM5.76792 8.65674L3.44641 0.85733L2.48797 1.14261L4.80948 8.94202L5.76792 8.65674ZM80.1361 62.0542C46.0745 63.2832 15.4915 41.3241 5.76792 8.65674L4.80948 8.94202C14.6631 42.0463 45.6551 64.299 80.1722 63.0535L80.1361 62.0542Z" fill="white"/>
</svg>
